<svg xmlns="http://www.w3.org/2000/svg" xmlns:xlink="http://www.w3.org/1999/xlink" width="512" zoomAndPan="magnify" viewBox="0 0 384 383.999986" height="512" preserveAspectRatio="xMidYMid meet" version="1.0"><path stroke-linecap="round" transform="matrix(0.00286576, 0.655512, -0.655512, 0.00286576, 204.763731, 38.403011)" fill="none" stroke-linejoin="miter" d="M 20.497993 20.502553 L 447.961143 20.500181 " stroke="#ffffff" stroke-width="41" stroke-opacity="1" stroke-miterlimit="4"/><path stroke-linecap="round" transform="matrix(0, 0.655518, -0.655518, 0, 246.23111, 150.140014)" fill="none" stroke-linejoin="miter" d="M 20.499994 20.50004 L 224.227298 20.50004 " stroke="#ffffff" stroke-width="41" stroke-opacity="1" stroke-miterlimit="4"/><path stroke-linecap="round" transform="matrix(0, 0.655518, -0.655518, 0, 286.987806, 183.229833)" fill="none" stroke-linejoin="miter" d="M 20.500031 20.498337 L 114.497764 20.498337 " stroke="#ffffff" stroke-width="41" stroke-opacity="1" stroke-miterlimit="4"/><path stroke-linecap="round" transform="matrix(0, -0.655518, 0.655518, 0, 137.763923, 313.083256)" fill="none" stroke-linejoin="miter" d="M 20.50093 20.501659 L 224.228234 20.501659 " stroke="#ffffff" stroke-width="41" stroke-opacity="1" stroke-miterlimit="4"/><path stroke-linecap="round" transform="matrix(0, -0.655518, 0.655518, 0, 97.002993, 279.993434)" fill="none" stroke-linejoin="miter" d="M 20.500963 20.500455 L 114.498696 20.500455 " stroke="#ffffff" stroke-width="41" stroke-opacity="1" stroke-miterlimit="4"/><path stroke-linecap="round" transform="matrix(-0.655518, 0, 0, -0.655518, 272.877526, 113.892831)" fill="none" stroke-linejoin="miter" d="M 20.502915 20.502427 L 224.22426 20.502427 " stroke="#ffffff" stroke-width="41" stroke-opacity="1" stroke-miterlimit="4"/></svg>